<?xml version="1.0" standalone="no"?>
<!DOCTYPE svg PUBLIC "-//W3C//DTD SVG 20010904//EN"
 "http://www.w3.org/TR/2001/REC-SVG-20010904/DTD/svg10.dtd">
<svg version="1.0" xmlns="http://www.w3.org/2000/svg"
 width="260.000000pt" height="260.000000pt" viewBox="0 0 260.000000 260.000000"
 preserveAspectRatio="xMidYMid meet">
<metadata>
Created by potrace 1.11, written by Peter Selinger 2001-2013
</metadata>
<g transform="translate(0.000000,260.000000) scale(0.100000,-0.100000)"
fill="#000000" stroke="none">
<path d="M0 2510 c0 -78 3 -91 18 -96 9 -3 35 -13 57 -24 22 -10 62 -21 88
-25 27 -4 69 -15 94 -26 43 -18 83 -18 83 1 0 4 -9 27 -19 50 -20 45 -18 70 5
70 7 0 49 -29 93 -65 44 -36 84 -65 89 -65 5 0 17 -9 28 -21 10 -12 32 -28 49
-36 16 -8 44 -28 60 -43 17 -16 39 -30 50 -32 11 -2 20 -9 20 -16 0 -20 56
-41 83 -31 39 15 65 107 76 266 6 87 13 113 28 113 18 0 60 -56 100 -135 39
-78 64 -115 78 -115 4 0 24 21 44 48 25 32 49 50 73 58 20 6 42 19 47 29 34
59 64 70 90 33 8 -11 25 -66 38 -120 19 -82 26 -100 44 -104 35 -9 87 20 159
87 84 80 119 101 159 97 26 -3 32 -8 34 -32 2 -17 -4 -69 -13 -118 -18 -90
-15 -138 9 -138 13 0 59 34 104 76 35 32 121 76 137 70 20 -7 19 -66 0 -113
-23 -55 -19 -76 18 -93 30 -14 32 -18 29 -63 l-2 -49 62 5 c35 2 90 11 123 20
33 8 79 20 102 26 23 6 61 24 83 39 37 25 49 28 111 25 l69 -3 0 270 0 270
-1300 0 -1300 0 0 -90z"/>
<path d="M13 2233 c-10 -4 -13 -90 -13 -385 l0 -381 52 7 c67 9 91 27 103 78
10 40 14 43 65 58 53 15 55 17 56 51 0 23 -11 51 -33 84 -59 91 -52 142 23
154 31 5 46 15 74 53 24 33 38 44 46 37 7 -6 21 -6 38 1 29 11 47 41 27 48 -7
2 -23 15 -35 27 -16 16 -31 22 -44 18 -24 -6 -69 36 -74 69 -3 23 -38 37 -141
59 -32 7 -60 16 -63 21 -6 9 -61 10 -81 1z"/>
<path d="M2531 1923 c-123 -110 -192 -187 -206 -231 -14 -47 89 -121 209 -149
32 -7 61 -12 63 -10 2 2 2 104 1 226 l-3 221 -64 -57z"/>
<path d="M1626 1875 c-9 -7 -16 -18 -16 -24 0 -14 -41 -5 -51 11 -6 10 -56
-61 -52 -74 3 -8 -56 -23 -79 -19 -24 3 -23 -8 3 -35 23 -24 32 -22 97 24 25
19 39 22 65 16 17 -4 44 -7 59 -6 14 1 38 -2 52 -8 17 -6 27 -6 32 1 4 6 11 6
20 -2 19 -16 18 -37 -3 -42 -11 -3 -7 -5 10 -6 15 0 28 -4 28 -8 1 -5 3 -18 4
-31 1 -13 7 -28 13 -34 8 -8 10 13 8 77 -3 77 -6 91 -26 107 -18 15 -40 22
-52 17 -2 -1 -24 10 -49 23 -37 20 -49 23 -63 13z m-49 -41 c-3 -3 -12 -4 -19
-1 -8 3 -5 6 6 6 11 1 17 -2 13 -5z"/>
<path d="M1580 1871 c0 -6 5 -13 10 -16 6 -3 10 1 10 9 0 9 -4 16 -10 16 -5 0
-10 -4 -10 -9z"/>
<path d="M956 1835 c-3 -8 -13 -15 -23 -15 -10 0 -33 -16 -52 -35 -19 -19 -30
-35 -24 -35 5 0 13 4 19 9 5 5 44 11 86 14 67 4 83 2 125 -19 26 -13 44 -24
40 -24 -4 0 3 -11 17 -24 15 -13 26 -31 26 -40 0 -22 -36 -15 -95 19 -38 23
-53 26 -86 21 -58 -9 -134 -50 -159 -86 -20 -28 -24 -29 -76 -25 -61 5 -74 -9
-16 -19 67 -11 89 -8 95 14 6 22 11 22 165 20 46 -1 91 -4 99 -7 11 -4 14 -2
11 8 -9 28 -81 44 -156 33 -77 -10 -82 -2 -18 27 60 27 103 24 155 -11 25 -17
51 -28 58 -26 7 3 17 -2 22 -12 9 -15 11 -15 31 3 11 10 19 24 16 31 -2 6 0
16 6 22 6 6 12 33 13 61 2 43 0 49 -11 40 -8 -6 -14 -20 -14 -30 0 -25 -16
-24 -23 1 -3 11 -13 20 -22 20 -23 0 -75 38 -75 56 0 8 -4 14 -10 14 -5 0 -10
-4 -10 -8 0 -14 -64 -5 -101 14 -4 2 -9 -3 -13 -11z"/>
<path d="M1395 1753 c8 -18 18 -33 20 -33 10 0 4 16 -16 40 l-20 25 16 -32z"/>
<path d="M1418 1694 c-5 -4 -8 -15 -8 -25 0 -9 3 -19 8 -22 4 -2 2 -3 -5 -1
-14 3 -23 -29 -16 -56 6 -23 23 -27 23 -5 0 8 -4 15 -10 15 -24 0 -7 15 18 16
15 1 38 5 52 8 24 7 24 7 6 -8 -15 -12 -16 -16 -5 -20 32 -10 69 -13 69 -5 0
5 5 9 11 9 5 0 7 -5 3 -12 -4 -7 -3 -8 5 -4 28 18 171 15 171 -3 0 -4 -13 -14
-29 -24 -21 -12 -53 -17 -118 -18 -91 0 -93 -16 -3 -19 40 -2 42 -3 15 -9 -23
-5 -26 -8 -13 -13 20 -8 58 1 58 14 0 6 24 9 62 6 35 -3 57 -3 50 0 -6 2 -12
10 -12 18 0 8 -7 11 -17 8 -17 -5 -17 -4 0 9 10 8 29 14 42 13 23 -3 23 -2 -8
39 -42 55 -66 72 -122 87 -39 11 -53 10 -94 -5 -63 -22 -118 -23 -123 -1 -2 9
-6 12 -10 8z m262 -34 c48 -24 54 -44 9 -28 -17 6 -52 8 -77 6 -26 -3 -58 -2
-72 1 l-24 7 24 17 c33 23 92 22 140 -3z m-210 -10 c0 -5 -4 -10 -10 -10 -5 0
-10 5 -10 10 0 6 5 10 10 10 6 0 10 -4 10 -10z"/>
<path d="M1497 1569 c7 -7 15 -10 18 -7 3 3 -2 9 -12 12 -14 6 -15 5 -6 -5z"/>
<path d="M1430 1545 c0 -14 11 -37 25 -51 14 -14 25 -29 25 -33 0 -11 25 -21
51 -21 11 0 19 7 19 16 0 8 -4 12 -10 9 -5 -3 -10 -1 -10 4 0 11 -14 27 -68
74 l-32 27 0 -25z"/>
<path d="M1397 1468 c3 -48 1 -68 -8 -68 -8 0 -8 -5 2 -17 7 -10 9 -15 4 -10
-4 4 -18 1 -29 -6 -21 -14 -134 -16 -154 -3 -6 3 -29 -10 -52 -29 -24 -20 -44
-34 -46 -32 -2 2 1 19 6 38 l9 34 -29 -35 c-16 -19 -30 -40 -30 -46 0 -26 40
-42 133 -55 83 -11 104 -11 130 1 18 8 55 15 82 15 70 2 69 2 83 35 17 37 27
38 49 3 10 -16 44 -54 76 -87 34 -34 60 -70 64 -87 3 -16 10 -32 14 -35 5 -3
9 -13 9 -23 0 -10 8 -28 19 -40 16 -18 20 -19 25 -6 3 9 2 14 -2 11 -4 -2 -8
20 -9 50 l-1 55 19 -22 c18 -21 20 -22 39 -4 11 10 20 14 20 10 0 -4 9 0 19 9
15 13 20 14 24 4 4 -8 6 -7 6 5 1 9 -3 17 -8 17 -5 0 -7 14 -5 30 6 33 -29 92
-39 68 -4 -10 -8 -9 -16 2 -9 13 -11 12 -11 -3 0 -13 -5 -17 -19 -12 -19 6
-36 -18 -25 -36 3 -5 1 -9 -4 -9 -6 0 -13 7 -16 16 -4 9 -9 14 -12 11 -7 -7
-26 12 -83 81 -24 28 -49 52 -57 52 -8 0 -14 7 -14 16 0 12 -3 14 -13 6 -7 -6
-24 -8 -37 -5 -20 5 -22 3 -18 -14 4 -16 2 -19 -13 -16 -12 3 -19 0 -19 -8 -1
-8 -7 1 -15 20 -15 33 -10 65 6 40 7 -12 11 -11 25 3 15 15 15 18 -2 36 -11
11 -29 23 -41 26 -14 4 -25 20 -31 44 -8 32 -9 27 -5 -30z"/>
<path d="M953 1513 c9 -2 23 -2 30 0 6 3 -1 5 -18 5 -16 0 -22 -2 -12 -5z"/>
<path d="M1760 1491 c0 -6 4 -13 10 -16 6 -3 7 1 4 9 -7 18 -14 21 -14 7z"/>
<path d="M1137 1414 c-4 -4 -7 -14 -7 -23 0 -11 3 -12 11 -4 6 6 10 16 7 23
-2 6 -7 8 -11 4z"/>
<path d="M2507 1396 c-63 -26 -137 -71 -137 -84 1 -27 35 -43 68 -31 13 5 22
5 22 -1 0 -6 -10 -10 -22 -10 l-21 0 23 -25 c19 -20 124 -65 152 -65 4 0 8 54
8 120 0 138 3 135 -93 96z"/>
<path d="M1785 1380 c3 -5 8 -10 11 -10 2 0 4 5 4 10 0 6 -5 10 -11 10 -5 0
-7 -4 -4 -10z"/>
<path d="M0 1210 c0 -157 0 -160 20 -148 11 7 24 24 29 38 6 17 30 36 74 59
64 33 77 48 77 97 0 25 -68 75 -135 97 -27 10 -52 17 -57 17 -4 0 -8 -72 -8
-160z"/>
<path d="M1010 1274 c-13 -13 -29 -23 -35 -23 -22 2 -54 -14 -48 -24 4 -6 0
-8 -8 -5 -24 9 -82 -19 -76 -37 4 -8 -1 -21 -9 -30 -9 -8 -12 -15 -8 -15 3 0
1 -7 -6 -15 -10 -13 -9 -15 9 -15 12 0 20 -4 17 -8 -13 -21 16 -32 100 -37 70
-4 102 -1 154 14 69 21 66 25 -17 21 -29 -1 -57 2 -64 6 -18 11 -69 13 -69 3
0 -5 -7 -6 -15 -3 -8 4 -15 13 -15 21 0 8 5 11 10 8 6 -3 10 1 10 9 0 20 20
31 30 16 18 -29 62 41 66 103 1 20 1 37 0 36 0 0 -12 -11 -26 -25z"/>
<path d="M1320 1094 c63 -7 138 -21 166 -29 29 -8 76 -15 106 -15 30 0 59 -5
66 -12 17 -17 32 2 21 29 -7 20 -13 22 -51 17 -24 -3 -79 -1 -123 5 -44 7
-129 14 -190 16 l-110 4 115 -15z"/>
<path d="M1840 1090 c-8 -5 -10 -10 -5 -10 6 0 17 5 25 10 8 5 11 10 5 10 -5
0 -17 -5 -25 -10z"/>
<path d="M1173 1007 c3 -7 10 -11 16 -9 6 1 11 -5 11 -14 0 -11 6 -14 23 -9
21 5 20 5 -3 -10 -15 -10 -17 -14 -7 -11 10 3 41 6 68 6 36 0 48 3 43 12 -5 8
0 9 14 6 12 -4 20 -2 17 2 -3 5 3 11 12 14 15 4 14 4 -2 4 -11 -1 -33 1 -50 5
-58 14 -146 16 -142 4z"/>
<path d="M44 995 c-3 -8 -9 -13 -13 -11 -4 3 -13 1 -19 -3 -9 -5 -12 -33 -10
-94 l3 -86 56 27 c70 34 158 102 159 123 0 11 -18 21 -57 32 -99 27 -113 29
-119 12z"/>
<path d="M1768 1003 c7 -3 16 -2 19 1 4 3 -2 6 -13 5 -11 0 -14 -3 -6 -6z"/>
<path d="M2480 1001 c0 -10 60 -24 68 -16 3 3 -2 5 -11 5 -9 0 -17 5 -17 10 0
6 -9 10 -20 10 -11 0 -20 -4 -20 -9z"/>
<path d="M2565 1000 c3 -5 8 -10 11 -10 2 0 4 5 4 10 0 6 -5 10 -11 10 -5 0
-7 -4 -4 -10z"/>
<path d="M1433 987 c-3 -5 -2 -11 1 -14 3 -4 -3 -13 -15 -21 -15 -10 -24 -11
-32 -3 -14 14 -37 14 -37 1 0 -5 9 -10 20 -10 11 0 20 -5 20 -11 0 -5 -5 -7
-12 -3 -7 5 -9 2 -5 -8 3 -9 3 -19 0 -22 -10 -9 -14 -66 -5 -66 4 0 13 5 20
12 9 9 12 8 13 -8 1 -10 0 -23 -1 -29 -1 -5 -2 -25 -2 -43 0 -17 -5 -35 -11
-39 -22 -13 -87 -11 -102 3 -18 19 -31 18 -15 -1 7 -9 10 -19 6 -22 -4 -4 -11
-1 -16 7 -7 12 -10 11 -17 -5 -4 -11 -14 -20 -22 -20 -8 0 -15 -7 -17 -15 -1
-8 -5 -23 -9 -32 -4 -11 -3 -18 4 -18 6 0 10 5 9 11 -2 6 3 14 10 16 6 3 12
-2 12 -11 0 -10 6 -13 15 -10 8 4 15 1 15 -5 0 -6 -7 -11 -15 -11 -8 0 -15 -9
-15 -20 0 -16 7 -20 35 -20 30 0 35 3 35 23 0 15 9 29 25 37 25 13 33 30 15
30 -26 0 -5 17 36 29 28 8 41 17 34 21 -9 5 -9 9 -1 14 6 4 11 4 11 -1 0 -4 6
2 14 13 8 11 13 36 11 56 -2 23 1 41 10 48 8 6 11 18 8 26 -3 8 1 14 11 14 9
0 16 -4 16 -10 0 -18 22 -10 27 10 5 17 21 25 45 21 4 0 12 8 18 19 6 11 18
20 28 21 10 0 12 3 5 6 -7 2 -13 14 -13 25 0 15 -5 19 -20 15 -11 -3 -18 -1
-14 4 7 12 -18 11 -50 -1 -14 -5 -26 -6 -26 -2 0 10 -51 9 -57 -1z m87 -61 c0
-2 -8 -10 -17 -17 -16 -13 -17 -12 -4 4 13 16 21 21 21 13z m-65 -66 c3 -5 1
-10 -4 -10 -6 0 -11 5 -11 10 0 6 2 10 4 10 3 0 8 -4 11 -10z m-155 -189 c0
-9 -41 -23 -48 -16 -2 2 -1 8 3 14 8 13 45 15 45 2z"/>
<path d="M1725 980 c-3 -6 1 -7 9 -4 18 7 21 14 7 14 -6 0 -13 -4 -16 -10z"/>
<path d="M1115 940 c-3 -5 3 -10 14 -10 12 0 21 -5 21 -11 0 -6 -7 -9 -15 -6
-8 4 -17 2 -19 -2 -3 -5 3 -8 14 -7 22 1 65 34 56 43 -3 3 -12 0 -20 -6 -10
-8 -16 -9 -21 -1 -8 13 -22 13 -30 0z"/>
<path d="M1735 940 c-3 -5 -1 -10 4 -10 6 0 11 5 11 10 0 6 -2 10 -4 10 -3 0
-8 -4 -11 -10z"/>
<path d="M1060 920 c0 -5 5 -10 11 -10 5 0 7 5 4 10 -3 6 -8 10 -11 10 -2 0
-4 -4 -4 -10z"/>
<path d="M1545 880 c4 -6 11 -8 16 -5 14 9 11 15 -7 15 -8 0 -12 -5 -9 -10z"/>
<path d="M1475 840 c-3 -5 -1 -10 4 -10 6 0 11 5 11 10 0 6 -2 10 -4 10 -3 0
-8 -4 -11 -10z"/>
<path d="M1360 794 c0 -8 5 -12 10 -9 6 3 10 10 10 16 0 5 -4 9 -10 9 -5 0
-10 -7 -10 -16z"/>
<path d="M1177 791 c-16 -6 -14 -9 12 -29 19 -14 28 -28 25 -37 -10 -25 13
-17 31 11 14 22 15 28 4 35 -8 5 -16 3 -21 -4 -7 -12 -10 -11 -24 14 -6 10
-16 14 -27 10z"/>
<path d="M1320 735 c-7 -8 -9 -15 -6 -15 4 0 14 7 22 15 9 8 11 15 6 15 -5 0
-15 -7 -22 -15z"/>
<path d="M1370 740 c0 -5 5 -10 10 -10 6 0 10 5 10 10 0 6 -4 10 -10 10 -5 0
-10 -4 -10 -10z"/>
<path d="M1562 720 c0 -16 4 -30 9 -30 5 0 9 14 9 30 0 17 -4 30 -8 30 -5 0
-9 -13 -10 -30z"/>
<path d="M1527 733 c-4 -3 -7 -11 -7 -17 0 -6 5 -5 12 2 6 6 9 14 7 17 -3 3
-9 2 -12 -2z"/>
<path d="M1410 679 c0 -5 5 -7 10 -4 6 3 10 8 10 11 0 2 -4 4 -10 4 -5 0 -10
-5 -10 -11z"/>
</g>
</svg>
